<svg width="468" height="152" viewBox="0 0 468 152" fill="none" xmlns="http://www.w3.org/2000/svg">
<rect x="466.857" y="0.556213" width="150" height="466" transform="rotate(89.8909 466.857 0.556213)" fill="white"/>
<path fill-rule="evenodd" clip-rule="evenodd" d="M169.185 81.4958L185.668 64.43L186.898 65.456C187.253 65.7509 187.697 65.8959 188.139 65.8951C188.647 65.8941 189.153 65.701 189.518 65.3231L189.842 64.9875L191 65.9583L190.542 66.432C190.042 66.9496 189.789 67.6171 189.828 68.3124C189.867 69.0071 190.194 69.6466 190.749 70.1119L193.537 72.4509C194.056 72.8864 194.716 73.1211 195.409 73.1198C195.457 73.1197 195.506 73.1186 195.554 73.116C196.3 73.0798 196.986 72.7743 197.486 72.2572L203.652 65.872C204.683 64.8039 204.591 63.1536 203.445 62.1922L200.657 59.8531C200.102 59.3878 199.386 59.1523 198.64 59.188C197.932 59.2227 197.278 59.4997 196.785 59.9705L195.626 58.9987L196.043 58.5668C196.728 57.8577 196.667 56.7609 195.906 56.1217L186.638 48.3369L186.638 48.3364C184.123 46.2263 180.844 44.9021 177.407 44.607C173.98 44.3129 170.761 45.0632 168.343 46.7178C167.735 47.133 167.458 47.8423 167.635 48.5244C167.813 49.2065 168.409 49.7175 169.153 49.8261C176.164 50.851 178.072 52.9518 178.566 53.8074C179.066 54.6725 179.036 55.6536 178.474 56.806C178.22 57.3256 178.258 57.9084 178.549 58.3811L162.025 75.4904C161.175 75.0381 160.07 75.181 159.389 75.8856L158.163 77.1552C157.478 77.8643 157.445 78.9116 158.028 79.6526L153.756 82.4804C153.75 82.4849 153.743 82.4889 153.737 82.4934C152.017 83.6872 150.418 85.0456 148.983 86.5311L136.747 99.2003C134.318 101.716 134.537 105.603 137.235 107.867C138.457 108.892 140.012 109.445 141.644 109.442C141.757 109.442 141.871 109.439 141.985 109.434C143.742 109.348 145.357 108.629 146.534 107.41L158.771 94.741C160.205 93.256 161.487 91.6309 162.581 89.9117C162.584 89.9057 162.589 89.8992 162.592 89.8932L165.162 85.6372C165.485 85.8138 165.853 85.9066 166.234 85.9059C166.27 85.9058 166.307 85.9048 166.344 85.9032C166.911 85.8753 167.433 85.6433 167.813 85.2499L169.039 83.9803C169.419 83.5869 169.612 83.0793 169.582 82.5503C169.56 82.1646 169.422 81.8015 169.185 81.4958V81.4958ZM167.693 80.1842L163.581 76.7352L180.014 59.7207L184.138 63.1567L167.693 80.1842ZM198.747 61.0971C198.946 61.0878 199.137 61.1501 199.285 61.2743L202.073 63.6128C202.378 63.869 202.403 64.309 202.128 64.5932L195.962 70.9785C195.828 71.1161 195.645 71.1976 195.447 71.2074C195.249 71.2172 195.057 71.1539 194.91 71.0302L192.121 68.6912C191.816 68.435 191.791 67.9955 192.066 67.7108L198.233 61.3261C198.366 61.1879 198.549 61.107 198.747 61.0971V61.0971ZM195.412 61.3902L192.372 64.5377L191.215 63.5668L194.254 60.4193L195.412 61.3902ZM169.941 48.0094C174.202 45.4086 180.963 46.1488 185.265 49.7566L194.39 57.4218L188.123 63.9117L180.398 57.4768C181.175 55.8134 181.166 54.2744 180.372 52.9002C178.606 49.846 173.273 48.5391 169.941 48.0094V48.0094ZM160.811 88.9465C159.787 90.5541 158.588 92.0735 157.246 93.4622L145.01 106.131C144.2 106.971 143.087 107.466 141.878 107.525C140.668 107.585 139.507 107.201 138.607 106.446C137.707 105.691 137.176 104.655 137.113 103.528C137.05 102.401 137.461 101.318 138.271 100.479L150.508 87.8094C151.85 86.4206 153.345 85.15 154.953 84.0325L159.553 80.9876L163.577 84.3635L160.811 88.9465Z" fill="black"/>
<path fill-rule="evenodd" clip-rule="evenodd" d="M139.286 65.4989C141.955 67.5037 145.552 68.3305 149.152 67.7682C150.626 67.5374 152.156 68.0029 153.243 69.0122L158.054 73.4787C158.254 73.6649 158.517 73.7575 158.779 73.757C159.042 73.7565 159.304 73.6629 159.504 73.4759C159.904 73.1018 159.903 72.4966 159.501 72.1241L154.691 67.6576C153.135 66.2141 150.939 65.5509 148.814 65.8829C145.79 66.3556 142.786 65.6729 140.573 64.0102C138.047 62.1137 136.626 59.2236 136.714 56.2111L142.907 60.8621C144.636 62.1604 147.175 61.9057 148.568 60.2943L151.402 57.0173C152.077 56.2366 152.385 55.2585 152.27 54.2622C152.156 53.2655 151.631 52.3705 150.794 51.742L144.601 47.0905C147.888 46.3342 151.336 47.1031 153.906 49.1862C156.166 51.018 157.393 53.8149 157.274 56.8598C157.203 58.6712 157.931 60.4243 159.273 61.6701L165.554 67.5015C165.955 67.8736 166.604 67.8723 167.004 67.4988C167.404 67.1247 167.402 66.5195 167.001 66.1469L160.72 60.316C159.782 59.4447 159.273 58.2103 159.324 56.9291C159.466 53.3043 157.982 49.9564 155.251 47.7437C152.038 45.1392 147.678 44.2501 143.588 45.3663C142.937 45.5438 142.451 46.0399 142.318 46.6609C142.184 47.2823 142.431 47.9154 142.96 48.3131L149.507 53.2302C149.918 53.5385 150.175 53.9775 150.231 54.4667C150.288 54.9554 150.136 55.4355 149.805 55.8183L146.971 59.0958C146.287 59.8856 145.042 60.0109 144.195 59.3739L137.648 54.4568C137.118 54.0591 136.401 53.9699 135.777 54.223C135.155 54.476 134.739 55.0233 134.691 55.653C134.402 59.4403 136.12 63.1208 139.286 65.4989V65.4989Z" fill="black"/>
<path fill-rule="evenodd" clip-rule="evenodd" d="M203.004 99.5733L178.176 76.5218C177.775 76.1497 177.125 76.151 176.726 76.5245C176.326 76.8986 176.327 77.5038 176.728 77.8764L201.557 100.927C203.077 102.339 203.081 104.641 201.567 106.058C200.052 107.474 197.583 107.48 196.063 106.069L172.657 84.3377C172.256 83.9652 171.606 83.9664 171.206 84.3405C170.807 84.7146 170.808 85.3193 171.209 85.6919L194.615 107.423C195.776 108.501 197.298 109.037 198.82 109.034C200.341 109.031 201.863 108.488 203.019 107.406C205.332 105.243 205.325 101.729 203.004 99.5733V99.5733Z" fill="black"/>
<path d="M25.213 71.8016C25.2174 74.1482 24.538 75.8562 23.1747 76.9255C22.4505 77.4815 21.6405 77.8777 20.745 78.1141L26.6477 85.8149L24.3467 87.3873L17.7058 78.5359C17.3645 78.5579 16.8312 78.5696 16.1058 78.5709L14.9538 78.5731L14.9696 86.8611L11.8976 86.867L11.8569 65.491L16.9129 65.4814C18.5556 65.4782 19.8572 65.6144 20.8177 65.8899C21.7782 66.1441 22.6217 66.6012 23.3483 67.2611C24.5877 68.3468 25.2093 69.8602 25.213 71.8016ZM20.7394 75.2021C21.6555 74.539 22.1122 73.4928 22.1095 72.0635C22.1067 70.6342 21.7421 69.5789 21.0154 68.8976C20.2673 68.1523 18.816 67.7818 16.6613 67.7859L14.9333 67.7892L14.949 76.0131L16.165 76.0108C18.5116 76.0064 20.0365 75.7368 20.7394 75.2021ZM41.9702 75.7057L41.9913 86.8096L39.1113 86.8151L39.0905 75.8712C39.0886 74.8898 38.9592 74.1221 38.7021 73.5679C38.4451 73.0137 37.9219 72.7374 37.1325 72.7389C36.3645 72.7403 35.5223 72.9553 34.6057 73.3837C33.7105 73.7907 33.0075 74.2934 32.4966 74.8917L32.5194 86.8277L29.6394 86.8332L29.6085 70.6412L32.0085 70.6366L32.3322 72.588C32.9285 72.0109 33.7275 71.4867 34.7292 71.0155C35.7523 70.5442 36.7332 70.3076 37.6719 70.3058C39.2719 70.3028 40.3821 70.7807 41.0026 71.7395C41.6444 72.6769 41.9669 73.999 41.9702 75.7057ZM50.7779 87.2089C49.0285 87.2122 47.8116 86.7452 47.1272 85.8079C46.4427 84.8492 46.0988 83.4845 46.0954 81.7138L46.0742 70.6098L48.9542 70.6044L48.9753 81.6443C48.9773 82.711 49.1175 83.5001 49.3958 84.0115C49.674 84.5017 50.2292 84.7459 51.0612 84.7444C51.9145 84.7427 52.7356 84.6132 53.5244 84.3557C54.3346 84.0768 54.9952 83.7022 55.5063 83.2319L55.4824 70.6879L58.3624 70.6824L58.3936 87.0664L56.0576 87.0709L55.7343 85.3435C55.1166 85.8566 54.3601 86.2954 53.4648 86.6598C52.5695 87.0242 51.6739 87.2072 50.7779 87.2089ZM75.0326 75.6427L75.0538 86.7467L72.1738 86.7522L72.1529 75.8082C72.1511 74.8268 72.0216 74.0591 71.7645 73.5049C71.5075 72.9507 70.9843 72.6744 70.195 72.6759C69.427 72.6774 68.5847 72.8923 67.6682 73.3207C66.773 73.7277 66.0699 74.2304 65.5591 74.8287L65.5818 86.7647L62.7018 86.7702L62.671 70.5782L65.071 70.5737L65.3947 72.525C65.9909 71.9479 66.7899 71.4237 67.7917 70.9525C68.8148 70.4812 69.7957 70.2446 70.7343 70.2429C72.3343 70.2398 73.4446 70.7177 74.0651 71.6765C74.7069 72.614 75.0294 73.936 75.0326 75.6427ZM85.6003 87.1426C83.211 87.1471 81.4281 86.3399 80.2517 84.7208C79.0966 83.0803 78.5167 81.0334 78.512 78.5801C78.5073 76.1054 79.1221 74.0989 80.3565 72.5605C81.5909 71.0008 83.2854 70.219 85.4401 70.2148C87.2534 70.2114 88.6304 70.7208 89.571 71.743C90.5329 72.7438 91.0154 74.0762 91.0186 75.7402C91.02 76.4869 90.8618 77.4472 90.5441 78.6211L81.1361 78.6391C81.1822 80.4523 81.5797 81.9236 82.3285 83.0528C83.0773 84.182 84.1877 84.7453 85.6597 84.7425C87.1531 84.7396 88.5605 84.4383 89.882 83.8384L90.6218 85.821C89.0875 86.6986 87.4136 87.1391 85.6003 87.1426ZM88.3956 76.2892C88.3934 75.1372 88.157 74.231 87.6865 73.5706C87.2159 72.9101 86.5646 72.5807 85.7326 72.5823C84.9006 72.5839 84.2075 72.7345 83.6534 73.0343C83.1206 73.3126 82.7053 73.6761 82.4075 74.1246C81.8971 74.9789 81.5786 75.7689 81.452 76.4945L88.3961 76.5452L88.3956 76.2892ZM94.2526 83.7661C95.6618 84.3821 96.9531 84.6889 98.1264 84.6867C99.2997 84.6845 100.153 84.4695 100.685 84.0418C101.239 83.5928 101.515 83.0483 101.514 82.4083C101.513 81.7469 101.245 81.1928 100.711 80.7458C100.198 80.2988 99.568 79.948 98.8209 79.6934C98.0737 79.4175 97.3158 79.1309 96.5472 78.8337C95.8 78.5365 95.1591 78.0683 94.6246 77.4294C94.1113 76.769 93.8537 75.9482 93.8519 74.9668C93.8491 73.5162 94.3589 72.3632 95.3813 71.5079C96.4036 70.6313 97.7895 70.1913 99.5388 70.188C101.288 70.1847 102.697 70.4913 103.765 71.1079L103.097 73.2532C101.858 72.8289 100.717 72.6178 99.6714 72.6197C98.6261 72.6217 97.8478 72.8152 97.3365 73.2002C96.8252 73.5852 96.5702 74.1083 96.5715 74.7697C96.5727 75.4097 96.8404 75.9425 97.3746 76.3681C97.9087 76.7938 98.5493 77.1339 99.2965 77.3885C100.065 77.643 100.823 77.9296 101.57 78.2481C102.317 78.5454 102.958 79.0135 103.493 79.6525C104.027 80.2915 104.296 81.091 104.297 82.0509C104.3 83.4589 103.78 84.6546 102.736 85.6379C101.693 86.6213 100.2 87.1148 98.259 87.1185C97.363 87.1202 96.4561 87.0046 95.5384 86.7716C94.6419 86.5387 93.9694 86.2626 93.5208 85.9435L94.2526 83.7661ZM252.61 71.2404C252.587 70.7924 252.576 70.3445 252.575 69.8965C252.574 69.4485 252.584 69.0005 252.604 68.5524L246.81 84.0835L244.378 84.0881L238.524 68.5792C238.547 69.0272 238.558 69.4752 238.559 69.9232C238.56 70.3712 238.55 70.8192 238.53 71.2672L238.046 86.4362L235.23 86.4415L236.182 65.0637L239.734 65.0569L245.588 80.8858L251.382 65.0347L254.934 65.028L255.966 86.402L253.15 86.4074L252.61 71.2404ZM263.689 86.8033C262.303 86.806 261.193 86.4028 260.359 85.5937C259.547 84.7846 259.14 83.6973 259.137 82.332C259.135 81.436 259.326 80.6783 259.709 80.0589C260.091 79.4395 260.592 78.9799 261.21 78.68C262.318 78.1446 263.48 77.8757 264.696 77.8734C265.912 77.8711 267.043 77.9223 268.089 78.0269L268.084 75.5309C268.082 74.2936 267.867 73.4513 267.439 73.0042C267.033 72.5356 266.243 72.3024 265.07 72.3047C263.897 72.3069 262.5 72.5976 260.88 73.1767L260.204 71.1619C260.822 70.7768 261.632 70.4659 262.634 70.2293C263.657 69.9927 264.543 69.8737 265.289 69.8723C267.359 69.8683 268.821 70.3135 269.676 71.2079C270.531 72.1023 270.96 73.6055 270.964 75.7175L270.979 83.4934C270.981 84.2401 271.237 84.6129 271.749 84.612C272.091 84.6113 272.56 84.5144 273.157 84.3213L273.64 86.1124C272.916 86.5831 271.978 86.8195 270.826 86.8217C269.674 86.8239 268.841 86.2815 268.326 85.1945C267.858 85.6434 267.197 86.0286 266.345 86.3503C265.513 86.6505 264.628 86.8015 263.689 86.8033ZM264.293 84.5302C265.637 84.5276 266.906 84.1412 268.099 83.3709L268.092 79.6589C267.58 79.5746 266.748 79.5335 265.596 79.5357C263.1 79.5404 261.843 80.3748 261.824 82.0389C261.828 83.7029 262.65 84.5333 264.293 84.5302ZM278.706 86.3587L275.826 86.3642L275.796 70.1722L278.196 70.1677L278.52 72.5671C278.903 71.9263 279.531 71.3171 280.405 70.7395C281.3 70.1404 282.312 69.8398 283.443 69.8377C284.062 69.8365 284.531 69.8889 284.851 69.995L284.28 72.3001C284.088 72.2791 283.81 72.269 283.448 72.2697C281.122 72.2741 279.535 73.1198 278.684 74.8067L278.706 86.3587ZM290.269 86.3367L287.357 86.3422L287.326 70.2783L290.238 69.9847L290.269 86.3367ZM286.741 65.3834C286.74 64.85 286.931 64.4017 287.314 64.0383C287.698 63.6536 288.156 63.4607 288.689 63.4597C289.223 63.4586 289.671 63.6498 290.034 64.0331C290.419 64.395 290.612 64.8427 290.613 65.376C290.614 65.9093 290.423 66.379 290.04 66.7851C289.678 67.1698 289.23 67.3626 288.697 67.3637C288.163 67.3647 287.704 67.1735 287.32 66.7903C286.935 66.3857 286.742 65.9167 286.741 65.3834ZM293.858 78.5538C293.846 72.7299 296.177 69.8134 300.849 69.8045C302.022 69.8023 303.047 70.0457 303.922 70.5347L303.91 63.9107L306.822 63.9051L306.865 86.5611L304.593 86.5654L304.174 84.9982C302.832 86.0674 301.265 86.6038 299.473 86.6072C297.702 86.6105 296.325 85.8878 295.341 84.439C294.357 82.9902 293.862 81.0285 293.858 78.5538ZM300.821 72.2046C298.155 72.2097 296.826 74.3135 296.834 78.5162C296.841 82.3775 297.933 84.3061 300.109 84.302C301.666 84.299 302.945 83.8272 303.946 82.8866L303.927 72.7747C303.03 72.3924 301.995 72.2023 300.821 72.2046ZM321.919 84.6444C320.684 86.0121 319.064 86.6978 317.059 86.7017C315.054 86.7055 313.452 86.0365 312.255 84.6948C311.058 83.3531 310.456 81.2209 310.451 78.2982C310.445 75.3542 311.06 73.1984 312.295 71.8307C313.551 70.463 315.181 69.7772 317.187 69.7734C319.192 69.7696 320.783 70.4385 321.958 71.7803C323.156 73.122 323.757 75.2649 323.763 78.2089C323.768 81.1315 323.154 83.2767 321.919 84.6444ZM317.127 72.1415C314.631 72.1463 313.387 74.186 313.395 78.2606C313.403 82.314 314.644 84.3383 317.118 84.3336C318.142 84.3316 319.016 83.8499 319.74 82.8886C320.463 81.9272 320.823 80.3265 320.818 78.0865C320.814 75.8465 320.491 74.3004 319.85 73.4483C319.229 72.5748 318.322 72.1392 317.127 72.1415ZM333.42 78.4785C333.409 72.6545 335.739 69.7381 340.411 69.7292C341.585 69.7269 342.609 69.9703 343.485 70.4593L343.472 63.8353L346.384 63.8298L346.427 86.4857L344.155 86.4901L343.736 84.9228C342.394 85.9921 340.827 86.5284 339.035 86.5318C337.265 86.5352 335.887 85.8125 334.903 84.3637C333.919 82.9149 333.425 80.9531 333.42 78.4785ZM340.384 72.1292C337.717 72.1343 336.388 74.2382 336.396 78.4408C336.403 82.3021 337.495 84.2307 339.671 84.2266C341.228 84.2236 342.507 83.7519 343.508 82.8113L343.489 72.6993C342.592 72.317 341.557 72.127 340.384 72.1292ZM357.037 86.6255C354.648 86.6301 352.865 85.8228 351.689 84.2037C350.534 82.5632 349.954 80.5163 349.949 78.063C349.944 75.5883 350.559 73.5818 351.794 72.0435C353.028 70.4838 354.722 69.7019 356.877 69.6978C358.69 69.6943 360.067 70.2037 361.008 71.2259C361.97 72.2268 362.452 73.5592 362.456 75.2232C362.457 75.9698 362.299 76.9301 361.981 78.1041L352.573 78.122C352.619 79.9352 353.017 81.4065 353.766 82.5357C354.514 83.665 355.625 84.2282 357.097 84.2254C358.59 84.2226 359.998 83.9212 361.319 83.3214L362.059 85.3039C360.524 86.1815 358.851 86.6221 357.037 86.6255ZM359.833 75.7722C359.83 74.6202 359.594 73.714 359.123 73.0535C358.653 72.3931 358.002 72.0636 357.17 72.0652C356.338 72.0668 355.645 72.2175 355.09 72.5172C354.558 72.7955 354.142 73.159 353.845 73.6076C353.334 74.4619 353.016 75.2518 352.889 75.9774L359.833 76.0282L359.833 75.7722ZM376.127 86.5891C374.74 86.5918 373.63 86.1886 372.796 85.3795C371.984 84.5704 371.577 83.4831 371.574 82.1178C371.573 81.2218 371.763 80.4641 372.146 79.8447C372.529 79.2253 373.029 78.7657 373.647 78.4659C374.756 77.9304 375.918 77.6615 377.134 77.6592C378.35 77.6569 379.481 77.7081 380.526 77.8128L380.521 75.3168C380.519 74.0794 380.304 73.2372 379.877 72.79C379.47 72.3214 378.68 72.0883 377.507 72.0905C376.334 72.0927 374.937 72.3834 373.317 72.9625L372.641 70.9478C373.259 70.5626 374.069 70.2517 375.071 70.0151C376.095 69.7785 376.98 69.6595 377.727 69.6581C379.796 69.6541 381.258 70.0993 382.113 70.9937C382.968 71.8881 383.398 73.3913 383.402 75.5033L383.416 83.2793C383.418 84.0259 383.675 84.3988 384.187 84.3978C384.528 84.3971 384.997 84.3002 385.594 84.1071L386.077 85.8982C385.353 86.3689 384.415 86.6054 383.263 86.6076C382.111 86.6097 381.278 86.0673 380.764 84.9803C380.295 85.4292 379.635 85.8145 378.782 86.1361C377.95 86.4363 377.065 86.5874 376.127 86.5891ZM376.73 84.316C378.074 84.3134 379.343 83.927 380.536 83.1567L380.529 79.4447C380.017 79.3604 379.185 79.3193 378.033 79.3215C375.537 79.3263 374.28 80.1607 374.262 81.8247C374.265 83.4887 375.088 84.3191 376.73 84.316ZM388.253 63.75L391.165 63.7445L391.201 82.8804C391.203 83.7124 391.588 84.1277 392.356 84.1262C392.953 84.1251 393.582 84.0172 394.243 83.8026L394.727 85.9137C393.853 86.342 392.777 86.5574 391.497 86.5599C389.363 86.5639 388.294 85.35 388.29 82.918L388.253 63.75ZM401.308 86.5412C399.559 86.5445 398.342 86.0775 397.658 85.1401C396.973 84.1814 396.629 82.8168 396.626 81.0461L396.605 69.9421L399.485 69.9366L399.506 80.9766C399.508 82.0433 399.648 82.8323 399.926 83.3438C400.205 83.8339 400.76 84.0782 401.592 84.0766C402.445 84.075 403.266 83.9454 404.055 83.6879C404.865 83.4091 405.526 83.0345 406.037 82.5642L406.013 70.0202L408.893 70.0147L408.924 86.3987L406.588 86.4031L406.265 84.6757C405.647 85.1889 404.891 85.6277 403.995 85.9921C403.1 86.3564 402.204 86.5395 401.308 86.5412ZM418.289 69.5808L420.977 69.7357C422.577 69.7326 424.23 69.5802 425.936 69.2782L426.292 71.0696C425.481 71.2418 424.362 71.4252 422.933 71.62C423.745 72.5997 424.153 73.9003 424.156 75.5216C424.159 77.143 423.671 78.4986 422.692 79.5884C421.713 80.657 420.295 81.2037 418.439 81.2285C417.884 81.2296 417.34 81.1773 416.807 81.0716C416.467 81.819 416.297 82.438 416.298 82.9286C416.3 83.654 416.866 84.0155 417.996 84.0134L420.94 84.0078C422.476 84.0049 423.672 84.3546 424.526 85.0569C425.381 85.738 425.81 86.6865 425.812 87.9025C425.815 89.6305 425.124 91.0185 423.74 92.0665C422.376 93.1144 420.628 93.6404 418.495 93.6445C416.383 93.6485 414.771 93.2889 413.661 92.5657C412.55 91.8424 411.993 90.8195 411.991 89.4968C411.988 87.8328 412.966 86.487 414.927 85.4592C414.372 85.0123 414.093 84.3515 414.091 83.4768C414.09 82.6022 414.504 81.6307 415.334 80.5625C414.458 80.0735 413.785 79.3814 413.314 78.4863C412.843 77.5699 412.606 76.5463 412.604 75.4156C412.601 73.6876 413.078 72.2894 414.036 71.2209C414.994 70.1311 416.412 69.5844 418.289 69.5808ZM418.389 71.7886C416.299 71.7926 415.255 72.9893 415.26 75.3786C415.265 77.7679 416.301 78.9606 418.371 78.9567C420.461 78.9527 421.505 77.7667 421.5 75.3987C421.498 74.1614 421.251 73.2552 420.759 72.6801C420.288 72.0837 419.498 71.7865 418.389 71.7886ZM420.337 86.5049L416.401 86.5124C415.208 87.0267 414.612 87.8918 414.614 89.1078C414.616 89.8545 414.979 90.4085 415.705 90.7698C416.431 91.1524 417.456 91.3424 418.778 91.3399C420.122 91.3374 421.189 91.0473 421.977 90.4698C422.765 89.9136 423.158 89.1449 423.156 88.1636C423.155 87.5876 422.952 87.1613 422.546 86.8847C422.14 86.6295 421.404 86.5029 420.337 86.5049ZM433.277 86.4803C431.528 86.4836 430.311 86.0166 429.627 85.0792C428.942 84.1205 428.598 82.7559 428.595 80.9852L428.574 69.8812L431.454 69.8757L431.475 80.9157C431.477 81.9824 431.617 82.7714 431.895 83.2829C432.173 83.773 432.728 84.0173 433.56 84.0157C434.414 84.0141 435.235 83.8845 436.024 83.627C436.834 83.3482 437.495 82.9736 438.006 82.5033L437.982 69.9593L440.862 69.9538L440.893 86.3378L438.557 86.3422L438.234 84.6148C437.616 85.128 436.859 85.5668 435.964 85.9312C435.069 86.2955 434.173 86.4786 433.277 86.4803ZM451.506 86.4456C449.117 86.4501 447.334 85.6428 446.157 84.0237C445.002 82.3833 444.422 80.3364 444.418 77.883C444.413 75.4084 445.028 73.4019 446.262 71.8635C447.496 70.3038 449.191 69.5219 451.346 69.5178C453.159 69.5144 454.536 70.0238 455.477 71.046C456.438 72.0468 456.921 73.3792 456.924 75.0432C456.926 75.7899 456.767 76.7502 456.45 77.9241L447.042 77.942C447.088 79.7553 447.485 81.2265 448.234 82.3558C448.983 83.485 450.093 84.0482 451.565 84.0454C453.059 84.0426 454.466 83.7412 455.788 83.1414L456.527 85.124C454.993 86.0016 453.319 86.4421 451.506 86.4456ZM454.301 75.5922C454.299 74.4402 454.063 73.534 453.592 72.8736C453.121 72.2131 452.47 71.8837 451.638 71.8853C450.806 71.8869 450.113 72.0375 449.559 72.3372C449.026 72.6156 448.611 72.979 448.313 73.4276C447.803 74.2819 447.484 75.0719 447.358 75.7974L454.302 75.8482L454.301 75.5922ZM460.409 63.6126L463.321 63.607L463.358 82.743C463.359 83.575 463.744 83.9902 464.512 83.9888C465.109 83.9876 465.738 83.8798 466.399 83.6652L466.883 85.7763C466.01 86.2046 464.933 86.42 463.653 86.4224C461.519 86.4265 460.45 85.2125 460.446 82.7805L460.409 63.6126Z" fill="black"/>
</svg>
